<svg width="494" height="321" viewBox="0 0 494 321" fill="none" xmlns="http://www.w3.org/2000/svg">
<g clip-path="url(#clip0_50_3)">
<path d="M205.501 43.2801C207.229 39.8114 209.997 36.932 211.688 33.4449C213.379 29.9578 213.708 25.2903 210.89 22.621C208.498 20.3549 204.749 20.3229 201.888 18.6811C194.598 14.499 194.606 1.2148 186.274 0.0669739C182.221 -0.490963 178.554 2.53468 176.105 5.79812C173.655 9.06155 171.703 12.8682 168.306 15.138C164.46 17.7077 159.488 17.8196 155.218 19.6046C147.03 23.0266 142.737 31.8264 139.148 39.914C136.835 45.1235 134.47 50.7428 135.543 56.3375C133.211 57.7821 134.25 61.668 136.578 63.1194C138.906 64.5708 141.829 64.5388 144.501 65.1674C150.117 66.4885 154.719 70.9434 156.9 76.2629C158.6 80.4105 158.947 84.9643 159.275 89.4315L160.982 112.688C161.235 116.137 161.567 119.802 163.676 122.55C165.785 125.298 170.351 126.45 172.72 123.922C174.985 121.507 173.965 117.682 173.92 114.378C173.874 111.073 176.874 106.959 179.703 108.687L180.701 106.433C187.162 104.13 192.82 100.021 196.998 94.599C201.175 89.1769 203.694 82.6711 204.254 75.8604C204.974 64.8884 200.589 53.1257 205.501 43.2801Z" fill="#E6E6E6"/>
<path d="M212.102 112.843C212.727 112.258 213.17 111.507 213.379 110.678C213.589 109.85 213.556 108.98 213.285 108.169C213.013 107.359 212.515 106.643 211.849 106.106C211.182 105.568 210.375 105.232 209.523 105.136L209.533 105.508C208.317 106.216 206.93 106.578 205.522 106.558C204.118 106.536 202.722 106.756 201.394 107.209C200.734 107.448 200.162 107.88 199.754 108.449C199.345 109.018 199.119 109.696 199.105 110.395C199.182 110.931 199.388 111.441 199.705 111.881C200.022 112.32 200.442 112.677 200.927 112.921C201.901 113.399 202.948 113.716 204.024 113.858C206.802 114.378 210.049 114.772 212.102 112.843Z" fill="#E6E6E6"/>
<path d="M266.215 43.4638C267.378 42.677 268.365 41.6598 269.115 40.4756C269.479 39.8766 269.651 39.1822 269.611 38.4837C269.571 37.7852 269.319 37.1151 268.89 36.5614C268.015 35.8056 266.889 35.4007 265.73 35.4253C262.585 35.1915 259.425 35.5627 256.421 36.5184L265.674 44.681L266.215 43.4638Z" fill="#E6E6E6"/>
<path d="M250.789 50.5406C252.036 51.9109 251.638 54.0363 251.283 55.8515C250.928 57.6666 250.885 59.9346 252.456 60.9251C253.813 61.7854 255.722 61.083 256.714 59.8228C257.602 58.4795 258.143 56.9387 258.29 55.3371C258.779 53.008 258.999 50.6311 258.948 48.2523C258.889 45.8561 258.039 43.5458 256.531 41.6775C255.461 40.4621 254.035 39.6109 252.454 39.2432C250.873 38.8754 249.216 39.0097 247.715 39.627L249.148 39.5564C248.106 40.8882 247.316 42.3975 246.817 44.0107C246.578 44.8211 246.561 45.6806 246.768 46.4997C246.975 47.3189 247.399 48.0679 247.995 48.6689C248.848 49.4008 250.032 49.7086 250.789 50.5406Z" fill="#E6E6E6"/>
<path d="M321.106 27.5613L321.36 26.7797C320.294 27.3932 319.472 28.3528 319.032 29.4978C318.592 30.6428 318.561 31.9035 318.943 33.0688C319.763 32.4252 320.395 31.5755 320.776 30.6074C321.156 29.6394 321.27 28.5879 321.106 27.5613Z" fill="#E6E6E6"/>
<path d="M307.253 38.7434C308.61 37.9783 309.768 36.9072 310.635 35.616C311.501 34.3249 312.051 32.8495 312.242 31.3084C312.388 30.3503 312.277 29.3706 311.919 28.4695C311.735 28.022 311.442 27.6268 311.068 27.3189C310.694 27.011 310.248 26.8001 309.772 26.7048L309.192 27.6142C308.36 26.9008 306.962 27.6345 306.612 28.6711C306.386 29.7471 306.48 30.8653 306.882 31.889C307.284 32.919 307.266 34.0644 306.832 35.0812C306.364 35.6792 305.838 36.2296 305.261 36.7243C304.979 36.9796 304.795 37.3245 304.74 37.7C304.686 38.0755 304.764 38.4582 304.961 38.7828C305.505 39.4046 306.528 39.1441 307.253 38.7434Z" fill="#E6E6E6"/>
<path d="M301.348 33.6612C301.846 32.7713 302.081 31.7596 302.027 30.7424L300.757 30.3461C299.945 30.6734 299.225 31.1916 298.659 31.8565C298.487 32.0281 298.355 32.2356 298.273 32.464C298.191 32.6923 298.16 32.9359 298.184 33.1773C298.207 33.4188 298.284 33.652 298.409 33.8604C298.534 34.0688 298.703 34.2471 298.905 34.3826C299.107 34.5182 299.337 34.6075 299.577 34.6443C299.818 34.6812 300.064 34.6645 300.298 34.5955C300.531 34.5266 300.747 34.4071 300.928 34.2455C301.11 34.084 301.254 33.8844 301.349 33.6612H301.348Z" fill="#E6E6E6"/>
<path d="M363.382 27.2676C363.497 27.3638 363.611 27.4624 363.726 27.5592C363.827 27.5382 363.923 27.4976 364.026 27.4871L363.382 27.2676Z" fill="#E6E6E6"/>
<path d="M361.348 38.3581L364.844 35.5427C365.463 35.1065 365.991 34.5542 366.397 33.9168C366.675 33.3134 366.795 32.6498 366.746 31.9879C366.697 31.3259 366.48 30.6871 366.116 30.131C365.471 29.1454 364.663 28.2757 363.726 27.5589C362.697 27.8011 361.793 28.4109 361.185 29.2726C360.577 30.1344 360.308 31.1882 360.428 32.2344C360.639 33.5653 361.477 34.9878 360.793 36.1497C360.526 36.602 360.067 36.9098 359.76 37.3357C359.453 37.7615 359.353 38.4417 359.775 38.7532C360.244 39.101 360.894 38.7244 361.348 38.3581Z" fill="#E6E6E6"/>
<path d="M363.897 44.1034C364.33 44.1268 364.763 44.0569 365.167 43.8988C365.571 43.7406 365.936 43.4977 366.237 43.1867C367.794 41.916 369.157 40.4255 370.282 38.7625L362.419 41.2419L363.236 42.1937C362.507 42.6656 363.046 43.9406 363.897 44.1034Z" fill="#E6E6E6"/>
<path d="M371.245 49.4769C371.405 49.884 371.695 50.2277 372.07 50.4556C372.444 50.6834 372.884 50.7827 373.32 50.7385C373.755 50.6808 374.173 50.5288 374.542 50.2932C374.912 50.0576 375.225 49.7442 375.46 49.375C375.859 48.7898 376.093 48.1092 376.139 47.4036C376.185 46.698 376.041 45.993 375.721 45.3616C375.401 44.7301 374.918 44.1952 374.321 43.812C373.725 43.4289 373.036 43.2115 372.326 43.1823L373.05 44.2835C373.235 46.1631 370.668 47.6778 371.245 49.4769Z" fill="#E6E6E6"/>
<path d="M422.166 70.0629C422.875 70.5897 423.737 70.8733 424.621 70.8712C425.506 70.8691 426.366 70.5814 427.072 70.0512C427.531 69.6616 427.903 69.182 428.166 68.6424C428.43 68.1029 428.578 67.515 428.603 66.9156C428.627 66.3162 428.527 65.7182 428.309 65.1591C428.091 64.5999 427.759 64.0917 427.334 63.6663L425.995 64.4104C425.252 63.9352 424.353 63.7654 423.487 63.9366C422.622 64.1078 421.856 64.6067 421.352 65.3284C420.9 66.085 420.734 66.9773 420.883 67.845C421.032 68.7127 421.487 69.4991 422.166 70.0629Z" fill="#E6E6E6"/>
<path d="M437.737 71.8178C438.389 71.6293 438.982 71.2773 439.458 70.7954C439.934 70.3135 440.279 69.7179 440.458 69.0656L437.854 68.7252C437.13 68.1807 436.287 67.8141 435.393 67.6554C434.945 67.5885 434.488 67.677 434.098 67.906C433.708 68.135 433.408 68.4906 433.25 68.9132C433.195 69.2726 433.233 69.6402 433.361 69.9809C433.488 70.3215 433.702 70.6239 433.98 70.8592C434.471 71.3259 435.075 71.6592 435.733 71.8271C436.39 71.9951 437.08 71.9921 437.737 71.8184V71.8178Z" fill="#E6E6E6"/>
<path d="M426.987 77.0021C427.032 77.4238 427.198 77.8238 427.464 78.1553C427.729 78.4869 428.084 78.7363 428.487 78.8744C428.927 79.0822 429.42 79.1537 429.901 79.0796C430.382 79.0054 430.83 78.789 431.186 78.4584C431.344 78.2817 431.456 78.0703 431.515 77.8416C431.573 77.613 431.576 77.3737 431.523 77.1436C431.471 76.9136 431.363 76.6994 431.211 76.5189C431.058 76.3383 430.864 76.1967 430.646 76.1056L428.694 75.7523C427.938 75.3602 426.974 76.1541 426.987 77.0021Z" fill="#E6E6E6"/>
<path d="M313.709 90.6672L312.198 89.2933C312.6 89.8511 313.115 90.3191 313.709 90.6672Z" fill="#E6E6E6"/>
<path d="M302.168 82.5784C303.098 86.8796 307.751 90.3821 311.975 89.0917L312.198 89.2945C310.853 87.4615 310.625 84.7474 310.939 82.3922C311.523 78.3516 313.118 74.5224 315.58 71.2577C318.041 67.9931 321.288 65.3981 325.022 63.7123C326.045 63.3944 326.959 62.8011 327.665 61.998C328.266 61.1217 328.042 59.6181 327.005 59.3705C326.442 59.3056 325.873 59.4358 325.395 59.7392L317.545 63.5858C313.579 65.5287 309.536 67.5276 306.422 70.6491C303.308 73.7706 301.238 78.2771 302.168 82.5784Z" fill="#E6E6E6"/>
<path d="M175.453 230.484C168.139 225.271 160.128 221.102 151.653 218.101C146.444 216.257 140.847 214.85 135.422 215.897C132.446 216.51 129.657 217.813 127.282 219.701C124.906 221.589 123.012 224.008 121.752 226.762C120.539 229.536 119.968 232.546 120.082 235.569C120.197 238.593 120.994 241.552 122.414 244.227C124.916 248.896 129.251 252.615 130.7 257.707C131.677 261.14 131.214 264.796 130.743 268.333L127.861 290.021C126.987 296.603 126.133 303.452 128.227 309.755C130.321 316.058 136.292 321.614 142.927 320.946L144.241 320.848C139.853 317.877 138.625 311.725 139.929 306.604C141.233 301.483 144.552 297.141 147.79 292.954L176.616 255.685C180.504 250.659 184.615 244.447 182.54 238.448C181.361 235.038 178.398 232.584 175.453 230.484Z" fill="#E6E6E6"/>
<path d="M109.969 199.08C108.996 198.752 107.968 199.481 107.396 200.331C106.934 201.243 106.39 202.113 105.773 202.929C104.276 204.465 101.548 204.158 99.9337 202.745C98.3193 201.332 97.62 199.146 97.3065 197.03C96.9307 194.49 97.093 191.655 98.7772 189.71C100.511 187.708 103.361 187.171 105.983 186.755C108.692 186.325 111.726 185.967 113.944 187.572C115.342 188.583 116.157 190.214 117.451 191.353C118.746 192.491 121.049 192.923 122.024 191.503C122.279 190.999 122.408 190.442 122.4 189.878C122.391 189.314 122.246 188.761 121.977 188.265C121.429 187.277 121.1 186.184 121.01 185.059C121.076 183.498 122.335 182.257 123.623 181.365C124.912 180.472 126.367 179.702 127.212 178.386C128.252 176.766 128.142 174.68 128.786 172.868C130.347 168.483 135.919 166.533 137.541 162.17C137.932 161.253 137.976 160.225 137.665 159.277C136.986 157.54 135.149 157.881 135.037 155.757C134.929 153.726 136.631 151.733 138.361 150.885C140.746 149.718 143.525 149.81 146.183 149.739C148.84 149.668 151.702 149.316 153.65 147.518C154.281 146.87 154.768 146.097 155.078 145.249C155.389 144.401 155.516 143.497 155.451 142.597C155.386 141.697 155.132 140.82 154.703 140.025C154.275 139.229 153.683 138.533 152.966 137.981C151.512 136.982 149.676 136.634 148.262 135.581C146.5 134.269 145.67 132.084 144.295 130.372C143.154 129.068 141.849 127.917 140.411 126.947L136.88 124.339C134.752 122.767 132.539 121.155 129.95 120.595C127.361 120.034 124.278 120.827 122.981 123.128C122.47 124.153 122.19 125.277 122.163 126.422C122.045 129.116 122.158 131.816 122.5 134.491L123.141 140.952C123.333 142.882 123.127 145.427 121.245 145.929C117.069 147.04 118.478 140.89 117.553 139.01C116.133 136.127 109.622 134.743 106.838 133.541C105.099 132.791 103.264 131.963 102.214 130.392C100.907 128.437 101.175 125.776 102.2 123.661C103.226 121.546 104.895 119.824 106.412 118.026C107.958 116.193 109.366 114.249 110.773 112.307L115.666 105.551C117.758 102.663 119.957 99.1376 118.769 95.7808C118.512 95.3315 118.127 94.9677 117.662 94.7352C117.198 94.5027 116.676 94.4117 116.16 94.4736C115.644 94.5356 115.158 94.7477 114.763 95.0834C114.367 95.4191 114.08 95.8635 113.937 96.3609C113.416 98.1742 114.806 100.489 113.477 101.833C113.021 102.198 112.452 102.391 111.867 102.38C111.283 102.369 110.721 102.153 110.28 101.771C109.418 100.98 108.762 99.9929 108.366 98.8943C106.756 95.3304 105.187 91.7462 103.534 88.2026C103.011 87.0824 102.466 85.1646 100.88 85.3533C99.5061 85.5173 98.7636 87.5119 98.8111 88.6714C98.8809 90.3563 99.8158 91.8617 100.531 93.3905C101.245 94.9193 101.745 96.7547 100.963 98.2491C99.9689 100.141 97.4516 100.566 95.3082 100.504C91.2681 100.382 87.3095 99.3418 83.7349 97.4632C83.6415 99.4402 83.5481 101.417 83.4547 103.395L74.9196 99.8375L73.262 99.1469C70.8619 98.1465 68.4593 97.1455 65.9883 96.3332C64.5855 95.8723 63.1636 95.473 61.7423 95.0742L59.1503 94.3466C57.4452 93.745 55.6366 93.488 53.8305 93.5908C51.9328 93.828 50.2406 94.8431 48.4854 95.6014C44.5703 97.2936 39.506 95.5909 35.31 95.5608C33.6456 93.1416 31.3986 91.1765 28.7745 89.8452C26.1504 88.5139 23.2329 87.8589 20.2889 87.9402C17.3449 88.0214 14.4684 88.8363 11.9223 90.3102C9.37629 91.7842 7.24206 93.8702 5.71481 96.3775C4.97716 97.6477 4.32025 98.9628 3.74796 100.315L2.0397 104.125C1.2047 105.988 0.351187 107.952 0.515347 109.985C0.679508 112.019 2.24335 114.097 4.29474 114.079C-0.538124 116.257 -1.54345 123.88 2.55995 127.229C3.69612 128.155 5.09024 128.762 6.11224 129.809C6.88418 130.603 7.40044 131.608 7.59481 132.696C7.78918 133.784 7.6528 134.905 7.20316 135.915C6.75353 136.925 6.01114 137.778 5.07116 138.366C4.13118 138.953 3.03647 139.247 1.92738 139.211C4.79045 140.312 7.94413 140.415 10.8732 139.501C13.8024 138.588 16.3338 136.712 18.054 134.181C19.8085 131.446 20.5707 128.029 22.9578 125.819C26.1189 122.892 31.3399 123.119 34.9854 125.421C38.6308 127.723 40.9371 131.641 42.5238 135.638C44.6023 140.877 45.9329 146.862 50.3616 150.366C52.503 152.06 55.2148 153.013 57.1082 154.979C59.8039 157.778 60.2698 162.004 60.2093 165.882C60.1489 169.76 59.7292 173.783 61.148 177.395C62.5668 181.007 66.6338 183.978 70.2818 182.618C69.2368 185.705 69.2692 189.053 70.3736 192.12C71.4779 195.186 73.5897 197.792 76.3668 199.514L74.3734 187.203C77.685 188.132 79.8321 191.33 81.0713 194.525C82.3105 197.72 82.9659 201.177 84.7631 204.098C87.5927 208.698 92.7168 210.68 97.9292 210.663C103.56 210.644 105.698 207.971 109.408 204.034C110.154 203.362 110.72 202.516 111.055 201.573C111.206 201.097 111.179 200.582 110.98 200.124C110.78 199.666 110.422 199.295 109.969 199.08Z" fill="#E6E6E6"/>
<path d="M125.914 198.875L116.471 197.4L121.421 200.363C122.797 201.275 124.292 201.992 125.865 202.495C126.654 202.743 127.486 202.825 128.308 202.739C129.131 202.653 129.927 202.399 130.647 201.994L130.244 201.227C129.611 199.627 127.618 199.142 125.914 198.875Z" fill="#E6E6E6"/>
<path d="M123.775 216.294L123.797 216.239C123.607 215.925 123.326 215.675 122.992 215.52C122.657 215.366 122.284 215.314 121.92 215.373C121.195 215.502 120.454 215.514 119.725 215.409C119.262 215.228 118.849 214.94 118.521 214.569C118.192 214.197 117.958 213.753 117.838 213.273C117.525 212.336 117.432 211.333 117.076 210.411C116.819 209.682 116.364 209.038 115.763 208.55C115.162 208.061 114.437 207.747 113.668 207.643C112.896 207.581 112.131 207.824 111.538 208.32C110.945 208.815 110.572 209.523 110.499 210.291C110.56 211.081 110.812 211.844 111.234 212.516L112.252 214.467C112.539 215.049 112.869 215.61 113.239 216.144C113.84 216.969 114.626 217.642 115.534 218.111C116.442 218.58 117.448 218.832 118.471 218.847C119.494 218.861 120.506 218.638 121.428 218.195C122.349 217.751 123.153 217.1 123.778 216.293L123.775 216.294Z" fill="#E6E6E6"/>
<path d="M105.394 49.5304C107.79 50.9369 110.791 51.9066 111.93 54.4339L112.587 54.6453L110.437 57.3047C109.552 58.4003 108.621 59.6212 108.642 61.0271C108.67 62.9639 110.541 64.4245 112.432 64.8811C114.449 65.2943 116.548 64.9465 118.322 63.9053C120.097 62.8641 121.419 61.2037 122.033 59.2464C122.258 58.4298 122.351 57.583 122.548 56.7603C123.122 54.8074 123.99 52.9522 125.121 51.2571L144.213 19.2771C145.005 17.9492 145.822 16.3614 145.226 14.9353C144.908 14.3322 144.416 13.8377 143.813 13.5156C143.21 13.1936 142.524 13.0586 141.843 13.1281C140.485 13.2927 139.175 13.7318 137.993 14.4185C137.468 13.5002 136.727 12.7224 135.834 12.1521C134.94 11.5817 133.921 11.2358 132.864 11.144C130.75 10.9815 128.623 11.1658 126.569 11.6896C121.928 12.3869 117.453 13.9176 113.362 16.2072C111.124 17.3335 108.661 18.7265 108.011 21.1371C107.213 24.1037 109.787 27.1275 112.751 27.9804C115.714 28.8333 118.878 28.1168 121.878 27.3991C122.217 28.847 122.075 30.3652 121.475 31.7264C120.874 33.0875 119.847 34.2182 118.546 34.949C117.246 35.6798 115.743 35.9714 114.262 35.78C112.782 35.5885 111.403 34.9245 110.333 33.8873C108.183 31.803 107.13 28.1838 104.178 27.6462C101.235 27.1097 98.8963 30.2349 98.2464 33.1426C97.6111 36.2743 97.9557 39.5246 99.2338 42.4552C100.512 45.3858 102.662 47.8556 105.394 49.5317V49.5304Z" fill="#E6E6E6"/>
<path d="M142.304 100.825C140.886 96.8479 139.023 93.0425 136.749 89.4807C135.028 86.6635 132.902 84.1116 130.44 81.9055C128.19 79.9706 125.603 78.4618 122.807 77.4537C120.091 76.4767 117.072 75.9937 114.329 76.8847C111.585 77.7757 109.251 80.3153 109.307 83.1879C109.369 86.3641 112.159 88.8484 115.069 90.1535C117.978 91.4587 121.213 92.0264 123.955 93.6468C125.822 94.7736 127.381 96.3396 128.497 98.2071C129.613 100.075 130.251 102.186 130.355 104.357L131.046 105.495C129.481 106.011 128.02 106.802 126.734 107.83C126.098 108.353 125.611 109.034 125.323 109.805C125.036 110.575 124.958 111.408 125.097 112.218C125.576 114.141 127.548 115.245 129.332 116.125L139.219 121C137.541 116.018 143.035 111.382 143.339 106.136C143.351 104.313 142.999 102.506 142.302 100.82L142.304 100.825Z" fill="#E6E6E6"/>
<path d="M59.4348 87.3737C61.4343 88.9197 64.5077 88.1964 66.3394 86.4569C68.1711 84.7173 69.0628 82.2416 69.8948 79.8612C69.5911 82.2172 69.6199 84.604 69.9805 86.9521C70.1684 88.1263 70.599 89.2488 71.2451 90.2486C71.8912 91.2484 72.7387 92.1039 73.734 92.7607C74.6379 93.2534 75.6121 93.6056 76.6229 93.8053C81.3223 94.8703 86.2336 94.5211 90.7333 92.8019L90.7734 91.27C88.5128 91.5269 86.8027 89.0579 86.6533 86.7979C86.504 84.5379 87.3279 82.3209 87.4007 80.0566C87.4735 77.7923 86.3775 75.147 84.1385 74.7445C84.5302 75.528 84.673 76.4118 84.5479 77.2782C84.4228 78.1445 84.0357 78.9524 83.4381 79.5943C82.8405 80.2362 82.0607 80.6817 81.2026 80.8715C80.3444 81.0614 79.4485 80.9865 78.6342 80.6569C76.0422 79.608 75.1016 76.4644 73.099 74.5196C71.8615 73.4238 70.3263 72.7166 68.6864 72.487C67.0464 72.2574 65.3749 72.5156 63.8819 73.2292C62.4079 73.9781 61.1147 75.0366 60.0918 76.3318C59.0689 77.627 58.3406 79.1278 57.9573 80.7306C57.3482 83.0589 57.5284 85.8996 59.4348 87.3737Z" fill="#E6E6E6"/>
<path d="M121.136 71.2414L121.228 71.0915C120.673 69.4865 118.94 68.5458 117.251 68.3073C115.549 68.1954 113.84 68.2516 112.149 68.4751C110.442 68.6949 108.712 68.3155 107.256 67.4022C106.094 66.5371 105.432 65.176 104.502 64.0657C103.573 62.9553 102.069 62.0428 100.719 62.5737C99.2579 63.1483 98.8679 65.1877 99.577 66.5838C100.412 67.9233 101.671 68.9475 103.156 69.4945C108.783 72.0659 115.114 72.6811 121.133 71.2414H121.136Z" fill="#E6E6E6"/>
<path d="M101.93 76.0515C101.464 76.3928 101.148 76.9003 101.048 77.468C100.949 78.0358 101.074 78.6198 101.396 79.0982C101.719 79.5766 102.215 79.9124 102.78 80.0354C103.346 80.1585 103.937 80.0593 104.431 79.7586L104.925 80.2434C105.581 79.0759 105.85 77.5078 105.012 76.4614C104.639 76.0273 104.119 75.7455 103.55 75.67C102.981 75.5944 102.405 75.7305 101.931 76.0521L101.93 76.0515Z" fill="#E6E6E6"/>
<path d="M96.1611 80.2452C96.1684 79.8275 96.0485 79.4173 95.8171 79.0688C95.5858 78.7202 95.2539 78.4496 94.8651 78.2924C94.6005 78.2472 94.3294 78.2559 94.0682 78.3177C93.807 78.3796 93.5611 78.4935 93.3452 78.6525C93.1294 78.8116 92.9482 79.0125 92.8124 79.2431C92.6766 79.4737 92.5891 79.7293 92.5551 79.9945C92.5144 80.5348 92.5857 81.0777 92.7646 81.5894C92.9435 82.1011 93.2262 82.5708 93.595 82.9691C93.8096 83.29 94.0901 83.5619 94.4179 83.767C94.7458 83.9721 95.1136 84.1056 95.4971 84.1587C96.2697 84.1839 97.0578 83.3796 96.7443 82.676L95.5643 82.6533C95.9279 81.9001 96.1313 81.0803 96.1617 80.2452H96.1611Z" fill="#E6E6E6"/>
<path d="M73.0891 68.2152L74.3888 69.2641C75.1393 69.9101 75.95 70.4833 76.8099 70.976C78.3139 71.8056 80.0827 72.0213 81.7434 71.5775C82.5633 71.3448 83.3112 70.9103 83.9181 70.3141C84.525 69.7179 84.9713 68.9792 85.216 68.166C85.7338 66.2224 84.8889 64.2039 84.062 62.3697C83.8733 61.8447 83.5619 61.3719 83.1535 60.9903C82.9445 60.8055 82.6777 60.6984 82.3984 60.6872C82.119 60.676 81.8444 60.7614 81.6211 60.9288C81.4593 61.1294 81.3517 61.3679 81.3084 61.6216C81.2652 61.8753 81.2879 62.1358 81.3743 62.3783C81.5522 62.8617 81.6335 63.3749 81.6137 63.8893C81.531 64.3969 80.9966 64.8762 80.5257 64.666L80.4504 66.3927C78.2009 65.259 77.0111 62.2425 74.5073 61.9451C73.9454 61.8784 73.3759 61.9666 72.8609 62.2002C72.3459 62.4337 71.9051 62.8035 71.5868 63.2693C71.2684 63.7351 71.0847 64.2791 71.0556 64.8418C71.0264 65.4044 71.153 65.9643 71.4216 66.4602C71.8559 67.1482 72.4221 67.7441 73.0879 68.2139L73.0891 68.2152Z" fill="#E6E6E6"/>
<path d="M67.7305 60.7598C68.2509 60.4046 68.6627 59.9131 68.9205 59.3397C69.1782 58.7662 69.2719 58.133 69.1913 57.5099C69.129 57.2081 69.0007 56.9237 68.8155 56.6769C68.6303 56.4301 68.3929 56.2269 68.1199 56.0819C67.8469 55.9368 67.5452 55.8534 67.2362 55.8376C66.9272 55.8218 66.6185 55.8739 66.332 55.9903C65.6894 56.469 65.2378 57.1589 65.0576 57.9376L63.279 62.9332L64.2757 62.2112C65.5088 61.947 66.6811 61.4547 67.7317 60.7598H67.7305Z" fill="#E6E6E6"/>
<path d="M79.2772 50.5406C79.4552 50.3171 79.5819 50.0575 79.6483 49.78C79.7146 49.5025 79.7191 49.2139 79.6614 48.9345C79.6037 48.6551 79.4852 48.3916 79.3142 48.1627C79.1432 47.9338 78.924 47.745 78.6718 47.6096L77.4258 47.4935C77.1424 47.5648 76.8798 47.7013 76.659 47.892C76.4382 48.0827 76.2654 48.3223 76.1544 48.5915C76.0434 48.8607 75.9974 49.1521 76.0199 49.4422C76.0425 49.7324 76.133 50.0132 76.2843 50.2622C76.4356 50.5112 76.6434 50.7214 76.8911 50.876C77.1387 51.0306 77.4193 51.1252 77.7103 51.1522C78.0013 51.1793 78.2947 51.1381 78.5668 51.0319C78.8389 50.9257 79.0822 50.7574 79.2772 50.5406Z" fill="#E6E6E6"/>
<path d="M90.7425 52.4553C91.9053 53.0083 93.3771 53.5367 94.3886 52.7416C94.6882 52.4716 94.9111 52.1277 95.0347 51.7447C95.1583 51.3616 95.1784 50.9529 95.0928 50.5597C94.9113 49.7752 94.5604 49.0394 94.0646 48.4035C92.5176 46.1921 90.5521 44.3026 88.2783 42.8407L87.7161 43.5682C86.9311 45.596 86.1732 47.9684 87.268 49.8512C88.0067 51.1194 89.4138 51.8242 90.7425 52.4553Z" fill="#E6E6E6"/>
<path d="M99.4042 54.2624L101.578 55.2419C101.366 54.8717 101.041 54.5777 100.65 54.4019C100.26 54.226 99.824 54.1772 99.4042 54.2624Z" fill="#E6E6E6"/>
<path d="M93.545 61.0738L92.5175 61.4111C91.6436 62.8404 92.0237 64.6678 92.4292 66.2919C92.6859 67.3187 93.2401 68.5814 94.3016 68.5347C95.3347 68.4892 95.7914 67.2443 95.9895 66.2323C96.2988 65.1348 96.3323 63.9784 96.087 62.865C95.9471 62.3139 95.6141 61.8306 95.1481 61.5022C94.682 61.1738 94.1135 61.0219 93.545 61.0738Z" fill="#E6E6E6"/>
<path d="M77.161 56.2631L77.9214 56.5704C78.0996 56.5454 78.2647 56.4626 78.3909 56.3348C78.5172 56.207 78.5975 56.0413 78.6196 55.8634C78.6417 55.6855 78.6043 55.5054 78.5131 55.3508C78.4219 55.1963 78.282 55.0759 78.1152 55.0085C77.9484 54.9411 77.7639 54.9304 77.5903 54.9779C77.4167 55.0255 77.2638 55.1287 77.1551 55.2716C77.0464 55.4146 76.9881 55.5891 76.9892 55.7684C76.9902 55.9476 77.0507 56.1215 77.161 56.2631Z" fill="#E6E6E6"/>
<path d="M115.487 114.141C115.119 114.149 114.758 114.245 114.434 114.42C114.111 114.596 113.834 114.845 113.627 115.149C113.42 115.452 113.289 115.8 113.245 116.165C113.201 116.529 113.244 116.898 113.373 117.242C114.119 118.839 116.69 118.849 117.833 117.5C118.125 117.117 118.335 116.677 118.449 116.209C118.562 115.741 118.577 115.255 118.492 114.78C118.408 114.306 118.225 113.855 117.956 113.455C117.687 113.055 117.338 112.714 116.93 112.455L115.487 114.141Z" fill="#E6E6E6"/>
<path d="M152.518 152.058C152.219 152.137 151.939 152.275 151.695 152.464C151.45 152.653 151.247 152.888 151.095 153.157C150.944 153.426 150.849 153.722 150.814 154.028C150.78 154.334 150.808 154.644 150.896 154.939L153.03 155.086L155.199 154.002C155.155 153.697 155.051 153.404 154.891 153.141C154.732 152.877 154.521 152.647 154.271 152.466C154.021 152.284 153.737 152.155 153.436 152.085C153.135 152.014 152.823 152.005 152.518 152.057L152.518 152.058Z" fill="#E6E6E6"/>
<path d="M143.842 154.686C143.231 155.118 142.741 155.697 142.417 156.37C142.093 157.043 141.946 157.786 141.991 158.531C142.06 159.273 142.365 159.975 142.862 160.533C143.358 161.092 144.02 161.479 144.752 161.638C145.491 161.753 146.246 161.584 146.864 161.166C147.483 160.748 147.919 160.112 148.085 159.386C148.446 157.188 146.073 155.577 145.22 153.519L143.842 154.686Z" fill="#E6E6E6"/>
<path d="M226.745 140.168C226.97 141.818 225.476 143.263 225.421 144.928C225.355 146.903 227.514 148.44 229.489 148.246C230.469 148.077 231.397 147.684 232.199 147.097C233.001 146.511 233.655 145.747 234.11 144.866L234.153 144.682L231.267 141.434C230.086 140.104 228.833 138.591 228.879 136.816C228.902 135.941 229.25 135.096 229.229 134.219C229.182 133.589 229.041 132.971 228.81 132.383C228.55 131.609 228.193 130.737 227.419 130.478C226.447 130.151 225.465 131.009 225.001 131.92C224.584 132.761 224.381 133.691 224.411 134.628C224.44 135.565 224.701 136.481 225.171 137.294C225.733 138.241 226.595 139.076 226.745 140.168Z" fill="#E6E6E6"/>
<path d="M217.676 145.974C217.886 146.087 218.119 146.154 218.357 146.169C218.596 146.184 218.835 146.148 219.058 146.063C219.915 145.917 220.739 145.619 221.49 145.183C221.862 144.959 222.168 144.641 222.376 144.261C222.584 143.881 222.687 143.453 222.675 143.02C222.545 142.475 222.256 141.981 221.844 141.6C221.432 141.219 220.915 140.969 220.36 140.88C219.975 140.745 219.562 140.707 219.158 140.768C218.754 140.83 218.372 140.989 218.045 141.232C217.328 141.902 217.413 143.038 217.551 144.007L217.4 144.259C217.27 144.857 217.182 145.601 217.676 145.974Z" fill="#E6E6E6"/>
<path d="M369.094 216.499L368.47 214.954C368.185 215.653 368.291 216.369 369.094 216.499Z" fill="#E6E6E6"/>
<path d="M494 108.135C491.33 105.251 489.695 103.588 488.009 100.013C487.091 98.0408 485.697 96.3258 483.952 95.0208C482.207 93.7159 480.164 92.8615 478.006 92.534C472.467 91.6252 466.806 93.0642 461.199 92.7761C452.219 92.314 444.12 87.5181 435.521 84.9023C430.705 83.5598 425.802 82.5538 420.845 81.8914L412.278 80.5395C402.916 79.0648 393.495 77.5901 384.02 77.783C381.288 77.8396 377.478 77.0217 377.7 74.3094C377.972 70.9409 384.057 71.3827 385.229 68.2109C385.954 66.2489 384.22 64.1885 382.319 63.3013C380.418 62.414 378.223 62.1473 376.497 60.9558C374.772 59.7644 373.826 57.003 375.413 55.6327L362.225 62.3636C358.571 64.2291 354.488 66.6556 353.842 70.6939C351.64 71.2732 349.713 72.6061 348.399 74.4588C345.927 74.4717 343.983 76.8349 343.575 79.2633C343.167 81.6917 343.908 84.1489 344.642 86.4999C343.745 84.7892 342.79 83.014 341.212 81.8975C339.633 80.781 337.224 80.569 335.877 81.9553C334.494 83.3778 334.817 85.765 335.795 87.4892C336.774 89.2134 338.277 90.6045 339.2 92.3582C342.083 97.8356 336.858 105.547 330.678 104.937C331.092 99.281 331.507 93.6251 331.922 87.9691C332.183 86.2292 332.035 84.4525 331.49 82.7793C330.815 81.1602 329.089 79.8298 327.371 80.2127C324.282 80.9002 324.546 85.4055 325.828 88.2855C327.11 91.1656 328.394 95.1706 325.771 96.9348C324.076 98.074 321.78 97.3704 319.952 96.461C318.123 95.5516 316.167 94.4333 314.168 94.856C312.169 95.2788 310.912 98.3235 312.678 99.3478L303.891 97.8276C303.746 98.6861 303.422 99.5047 302.939 100.231C302.456 100.956 301.826 101.573 301.089 102.042C300.352 102.51 299.524 102.819 298.66 102.949C297.795 103.079 296.913 103.026 296.07 102.796L295.206 99.236L293.92 98.8796C295.266 99.2526 293.161 104.901 291.273 109.217C288.736 108.921 285.029 108.864 284.608 108.14C282.583 104.674 282.823 96.418 279.301 94.4677C277.536 93.4899 275.725 92.5989 273.87 91.7948C272.895 91.333 271.866 90.9965 270.806 90.7932C268.646 90.454 266.466 91.1213 264.38 91.7812C261.916 92.5604 259.394 93.369 257.353 94.95C255.611 96.4549 254.117 98.2235 252.927 100.191L240.84 118.002C239.64 119.587 238.695 121.349 238.041 123.225C237.733 124.157 237.63 125.145 237.74 126.121C237.85 127.096 238.171 128.037 238.679 128.878C239.215 129.703 240.014 130.324 240.948 130.641C241.881 130.959 242.895 130.954 243.825 130.629C244.993 130.125 246.163 128.985 247.32 129.511C248.196 129.91 248.415 131.057 248.323 132.012C248.1 132.948 248.083 133.92 248.272 134.862C248.799 136.349 250.826 136.866 252.271 136.223C253.677 135.459 254.73 134.181 255.209 132.659C256.602 129.102 256.46 125.167 256.806 121.364C257.153 117.562 258.197 113.496 261.207 111.131C262.108 110.424 263.433 109.914 264.36 110.586C264.708 110.901 264.948 111.315 265.048 111.772C265.147 112.228 265.101 112.705 264.916 113.134C264.528 113.983 264.022 114.774 263.414 115.484C262.385 116.925 261.665 118.561 261.299 120.291C260.933 122.02 260.928 123.807 261.285 125.538L261.902 125.917C264.247 125.311 267.391 126.397 270.508 127.438C268.246 128.107 266.254 129.471 264.816 131.335C261.214 136.368 258.607 141.13 251.48 141.07C249.79 141.056 248.114 140.723 246.423 140.719C244.716 140.614 243.035 141.172 241.733 142.275C240.451 143.524 240.055 145.427 238.955 146.84C237.514 148.699 235.104 149.455 232.903 150.298C231.295 150.913 229.6 151.747 228.86 153.298C228.396 154.569 228.289 155.943 228.552 157.27C228.799 159.618 229.238 162.288 231.239 163.555C231.987 163.944 232.805 164.181 233.646 164.251C234.487 164.322 235.333 164.226 236.136 163.968C238.217 163.464 240.252 162.515 242.389 162.656C245.745 162.879 248.508 166.086 248.542 169.433C248.559 171.128 248.062 173.072 249.19 174.341C250.251 175.534 252.353 175.321 253.449 174.164C253.959 173.548 254.31 172.817 254.472 172.035C254.633 171.253 254.599 170.444 254.374 169.678C253.908 168.151 253.19 166.713 252.251 165.42C253.368 165.132 254.55 165.237 255.597 165.719C256.644 166.201 257.491 167.029 257.994 168.062C258.74 169.711 258.499 171.612 258.735 173.408C258.971 175.203 260.069 177.192 261.882 177.296C262.475 177.312 263.055 177.122 263.521 176.757C263.988 176.392 264.312 175.877 264.436 175.3C264.455 174.39 264.405 173.48 264.287 172.578C264.349 171.69 264.75 170.859 265.407 170.256C266.065 169.653 266.929 169.323 267.823 169.334C267.271 170.349 267.091 171.523 267.315 172.656C267.538 173.788 268.15 174.808 269.046 175.54C270.426 176.603 272.249 176.84 273.968 177.138C275.687 177.435 277.52 177.904 278.629 179.245C280.476 181.477 278.216 182.483 277.863 184.374C277.431 186.695 279.379 190.123 280.127 192.343L290.438 206.706C291.206 207.871 292.111 208.939 293.134 209.888C296.528 212.79 302.121 212.503 305.375 209.448C306.953 207.859 307.978 205.808 308.299 203.596C308.619 201.384 308.219 199.128 307.157 197.159C305.147 193.514 301.162 191.26 299.196 187.589C302.471 190.288 306.492 191.935 310.726 192.31C318.219 193.826 325.337 196.798 331.674 201.057C331.972 207.649 334.512 213.944 338.877 218.909C339.662 213.283 342.296 208.075 346.368 204.097C349.017 201.525 352.635 199.452 356.268 200.144C359.901 200.836 362.657 205.448 360.46 208.411L365.984 208.82L368.461 214.953C368.608 214.523 368.889 214.152 369.264 213.893C369.638 213.634 370.086 213.502 370.541 213.515C372.265 213.774 373.474 215.37 375.114 215.96C378.204 217.072 381.509 213.994 381.909 210.745C382.308 207.497 380.756 204.362 379.249 201.455C382.58 202.07 386.017 201.704 389.142 200.402C392.267 199.101 394.942 196.921 396.842 194.129C398.741 191.337 399.781 188.054 399.836 184.682C399.89 181.31 398.955 177.996 397.146 175.145C400.73 171.398 404.947 168.307 409.605 166.013C413.916 163.892 418.631 162.437 422.398 159.462C426.166 156.488 428.808 151.323 426.995 146.889C425.715 143.755 422.504 141.631 421.543 138.387C420.152 133.691 424.378 128.834 429.152 127.661C433.925 126.488 438.91 127.93 443.613 129.361C442.89 124.543 448.499 120.027 453.079 121.738L458.834 119.418C456.613 124.299 451.792 127.406 448.249 131.441C444.706 135.476 442.595 142.048 446.297 145.942L462.213 131.579L478.861 116.555L478.066 114.23C483.324 112.244 488.978 110.601 494 108.135Z" fill="#E6E6E6"/>
<path d="M218.434 172.572C218.219 172.879 218.106 173.244 218.108 173.618C218.109 173.992 218.227 174.356 218.444 174.661C218.729 174.902 219.089 175.036 219.463 175.041C219.837 175.046 220.201 174.922 220.492 174.688C221.062 174.204 221.506 173.591 221.788 172.9C222.064 173.431 222.497 173.865 223.029 174.142C223.56 174.419 224.165 174.527 224.76 174.45C225.949 174.272 227.075 173.804 228.039 173.089C228.803 172.642 229.478 172.059 230.03 171.368C230.302 171.021 230.49 170.614 230.577 170.181C230.664 169.749 230.648 169.302 230.53 168.876C230.243 168.223 229.798 167.652 229.234 167.213L225.023 163.342L224.547 163.2C224.299 162.938 224.001 162.728 223.67 162.583C223.339 162.439 222.982 162.362 222.62 162.358C222.259 162.354 221.9 162.423 221.566 162.561C221.232 162.699 220.929 162.902 220.676 163.159C219.804 164.131 219.801 165.583 219.936 166.878C220.071 168.174 220.276 169.555 219.697 170.723C219.367 171.392 218.804 171.922 218.434 172.572Z" fill="#E6E6E6"/>
<path d="M299.884 216.676C294.429 215.466 289.435 212.727 285.493 208.782C281.551 204.837 278.826 199.851 277.639 194.413C277.122 191.847 276.888 189.044 275.171 187.059C273.511 185.139 270.799 184.445 268.254 184.445C265.709 184.445 263.2 185.029 260.663 185.187C256.22 185.462 251.516 184.294 248.341 181.192C246.837 179.723 245.699 177.857 243.943 176.698C241.582 175.14 238.45 175.141 235.763 176.022C232.767 177.005 230.369 179.695 227.093 179.324C223.687 178.939 219.738 177.74 218.403 182.207C218.018 183.493 218.149 184.903 217.662 186.154C216.912 188.083 214.919 189.169 213.342 190.517C210.168 193.23 208.48 197.352 207.911 201.479C207.342 205.605 207.783 209.797 208.22 213.939C208.457 216.173 208.77 218.577 210.311 220.219C212.46 222.506 216.066 222.418 219.198 222.16L230.122 221.261C232.085 221.1 234.322 221.032 235.72 222.413C236.557 223.242 236.912 224.441 237.648 225.359C238.31 226.14 239.217 226.675 240.223 226.877C241.23 227.079 242.275 226.936 243.189 226.471C242.449 227.784 242.047 229.259 242.016 230.764C241.986 232.27 242.329 233.759 243.016 235.101C243.702 236.443 244.71 237.596 245.95 238.457C247.191 239.318 248.625 239.862 250.127 240.039L250.408 240.215C248.076 244.191 245.656 248.655 246.624 253.157C247.453 257.017 250.664 260.112 251.191 264.025C251.673 267.614 249.791 271.286 250.624 274.812C251.467 278.382 255.088 280.871 258.762 281.137C262.436 281.403 266.044 279.78 268.891 277.45C271.738 275.12 273.938 272.122 276.106 269.155C277.444 267.324 278.818 265.419 279.277 263.201C279.767 260.84 279.2 258.223 280.352 256.106C281.682 253.662 284.837 252.746 286.429 250.464C288.492 247.508 287.277 243.484 287.733 239.914C288.869 231.084 300.141 225.577 299.884 216.676Z" fill="#E6E6E6"/>
<path d="M298.256 246.837C297.947 248.216 296.651 249.124 295.417 249.819C294.183 250.513 292.821 251.214 292.191 252.48C291.546 253.777 291.841 255.323 292.178 256.731C292.88 259.66 293.707 262.555 294.658 265.417C296.503 261.946 298.114 258.357 299.48 254.674C300.058 253.302 300.415 251.849 300.537 250.366C300.594 249.624 300.494 248.879 300.243 248.178C299.993 247.477 299.597 246.836 299.083 246.296L298.256 246.837Z" fill="#E6E6E6"/>
<path d="M374.123 231.471L369.476 226.13C368.416 224.912 367.208 223.61 365.603 223.408L364.942 223.829L368.971 233.382C369.447 234.836 370.284 236.146 371.405 237.191C372.607 238.132 374.557 238.313 375.559 237.163C375.883 236.732 376.087 236.224 376.15 235.69C376.214 235.156 376.136 234.615 375.924 234.12C375.486 233.138 374.876 232.24 374.123 231.471L374.123 231.471Z" fill="#E6E6E6"/>
<path d="M389.134 234.881C389.72 234.679 390.256 234.357 390.71 233.936C391.163 233.515 391.524 233.005 391.767 232.437C392.248 231.301 392.565 230.103 392.709 228.878L393.504 224.095L393.157 224.007C392.821 223.846 392.437 223.812 392.078 223.912C391.718 224.011 391.407 224.237 391.202 224.547C390.811 225.18 390.516 225.867 390.325 226.585C390.227 226.944 390.049 227.276 389.804 227.557C389.558 227.837 389.253 228.059 388.909 228.205C387.666 228.579 386.488 227.267 385.191 227.318C384.666 227.385 384.18 227.626 383.811 228.003C383.442 228.38 383.213 228.87 383.16 229.394C383.084 230.451 383.385 231.501 384.009 232.359C385.116 234.069 387.17 235.444 389.134 234.881Z" fill="#E6E6E6"/>
<path d="M397.699 237.904L401.27 228.542C399.823 229.587 398.715 231.029 398.08 232.692C397.446 234.356 397.314 236.167 397.699 237.904Z" fill="#E6E6E6"/>
<path d="M415.919 230.36L415.197 230.39C414.874 231.026 414.703 231.727 414.696 232.439C414.689 233.151 414.847 233.855 415.157 234.496C415.791 235.775 416.713 236.891 417.851 237.756C419.614 239.206 421.627 240.325 423.792 241.059C426.966 241.982 430.249 242.485 433.555 242.557L439.225 242.926C440.125 242.987 441.29 242.87 441.54 242.008C441.746 241.295 441.137 240.625 440.567 240.146C435.566 235.957 429.505 233.218 423.045 232.228C420.594 231.855 417.996 231.702 415.919 230.36Z" fill="#E6E6E6"/>
<path d="M436.092 255.203L432.015 251.266C430.693 249.99 428.712 248.637 427.197 249.679C426.326 250.278 426.058 251.447 425.32 252.202C424.871 252.603 424.328 252.886 423.74 253.026C423.153 253.165 422.541 253.157 421.958 253.001C420.797 252.676 419.699 252.158 418.712 251.469L415.339 249.385L411.848 247.228L409.222 249.769C409.336 248.519 407.661 247.706 406.501 248.2C405.95 248.508 405.476 248.936 405.114 249.451C404.751 249.967 404.511 250.557 404.409 251.178C404.216 252.419 403.879 253.634 403.405 254.798C402.071 257.341 398.834 258.093 395.985 258.519C393.136 258.945 389.91 259.545 388.385 261.978C387.115 264.006 387.496 266.607 387.92 268.958L389.524 277.852C389.6 278.93 390.034 279.951 390.758 280.756C392.169 281.995 394.353 281.242 396.075 280.486C399.673 278.763 403.534 277.649 407.5 277.19C411.501 276.744 415.527 277.771 418.819 280.078C420.861 281.626 422.417 283.768 424.58 285.142C426.071 286.035 427.746 286.577 429.479 286.727C431.211 286.878 432.955 286.633 434.578 286.01C437.831 284.721 440.522 282.331 442.18 279.261C443.652 276.554 444.391 273.512 444.323 270.434C444.256 267.357 443.385 264.35 441.796 261.709C440.174 259.313 438.257 257.127 436.092 255.203Z" fill="#E6E6E6"/>
<path d="M432.084 291.44C431.758 291.835 431.567 292.323 431.54 292.833C431.513 293.343 431.65 293.848 431.932 294.275C432.524 295.12 433.427 295.699 434.445 295.885C435.453 296.065 436.48 296.112 437.5 296.025L437.531 295.266C437.259 293.934 436.642 292.696 435.742 291.675C434.757 290.744 433.017 290.457 432.084 291.44Z" fill="#E6E6E6"/>
<path d="M467.085 292.255L466.598 292.077L463.119 297.3C462.495 298.236 461.843 299.361 462.224 300.419C462.674 301.671 464.34 302.038 465.634 301.709C466.621 301.442 467.511 300.9 468.2 300.147C468.888 299.394 469.347 298.461 469.522 297.457C469.666 296.448 469.512 295.419 469.079 294.496C468.647 293.572 467.954 292.793 467.085 292.255Z" fill="#E6E6E6"/>
<path d="M475.929 286.729L472.728 284.194C472.686 285.37 472.644 286.545 472.599 287.721H472.479C473.217 288.366 473.914 289.056 474.566 289.787C475.316 290.422 476.573 290.709 477.214 289.972C477.405 289.706 477.514 289.389 477.526 289.062C477.539 288.735 477.454 288.411 477.283 288.131C476.93 287.578 476.47 287.101 475.929 286.729Z" fill="#E6E6E6"/>
<path d="M418.082 176.467C416.738 176.425 415.251 176.344 414.21 177.19C413.867 177.495 413.567 177.844 413.316 178.228L412.949 178.74C412.4 179.456 411.921 180.222 411.519 181.03C411.309 181.408 411.182 181.827 411.149 182.258C411.115 182.689 411.175 183.122 411.324 183.528C411.41 183.722 411.538 183.895 411.698 184.035C411.859 184.174 412.048 184.277 412.253 184.336C412.458 184.394 412.673 184.407 412.884 184.374C413.094 184.341 413.295 184.262 413.471 184.143C414.045 183.613 413.911 182.652 414.346 182.004C414.537 181.759 414.782 181.563 415.063 181.429C415.344 181.295 415.652 181.228 415.963 181.234C416.583 181.249 417.2 181.319 417.809 181.441C419.493 181.671 421.208 181.416 422.751 180.706C424.295 179.997 425.602 178.862 426.519 177.437C427.435 176.011 427.923 174.354 427.924 172.661C427.925 170.969 427.44 169.311 426.525 167.884L426.417 167.556C425.487 167.52 424.574 167.811 423.836 168.377C423.099 168.942 422.585 169.748 422.382 170.653C422.082 172.211 422.719 174.022 421.77 175.297C420.97 176.37 419.425 176.509 418.082 176.467Z" fill="#E6E6E6"/>
<path d="M430.108 159.943L429.903 159.925C428.702 160.144 427.548 160.572 426.496 161.189C426.151 161.349 425.875 161.627 425.72 161.973C425.674 162.157 425.675 162.349 425.722 162.532C425.769 162.715 425.862 162.884 425.991 163.023C426.252 163.297 426.557 163.525 426.894 163.699C427.396 164.032 427.951 164.28 428.536 164.43C428.829 164.502 429.136 164.501 429.428 164.426C429.721 164.35 429.99 164.204 430.212 164C430.42 163.715 430.563 163.389 430.631 163.044C430.699 162.699 430.69 162.343 430.605 162.001C430.509 161.3 430.343 160.611 430.108 159.943H430.108Z" fill="#E6E6E6"/>
<path d="M409.4 176.864C409.722 176.352 409.95 175.787 410.074 175.197L410.45 173.82L409.111 173.01C408.471 173.342 407.881 173.761 407.358 174.255C407.098 174.504 406.892 174.803 406.754 175.135C406.616 175.467 406.548 175.824 406.555 176.183C406.574 176.542 406.714 176.885 406.952 177.154C407.191 177.424 407.515 177.606 407.87 177.669C408.173 177.678 408.474 177.609 408.742 177.468C409.011 177.327 409.238 177.119 409.402 176.865L409.4 176.864Z" fill="#E6E6E6"/>
<path d="M263.503 52.8658C262.973 53.1945 263.123 53.989 263.338 54.5721L264.078 56.5815L264.423 55.2812C264.726 54.7768 264.86 54.1895 264.805 53.6044C264.685 53.0323 264.001 52.5585 263.503 52.8658Z" fill="#E6E6E6"/>
<path d="M428.567 271.019C445.609 271.019 459.424 257.264 459.424 240.296C459.424 223.328 445.609 209.572 428.567 209.572C411.525 209.572 397.709 223.328 397.709 240.296C397.709 257.264 411.525 271.019 428.567 271.019Z" fill="black"/>
<mask id="mask0_50_3" style="mask-type:luminance" maskUnits="userSpaceOnUse" x="397" y="209" width="63" height="63">
<path d="M428.567 271.019C445.609 271.019 459.424 257.264 459.424 240.296C459.424 223.328 445.609 209.572 428.567 209.572C411.525 209.572 397.709 223.328 397.709 240.296C397.709 257.264 411.525 271.019 428.567 271.019Z" fill="white"/>
</mask>
<g mask="url(#mask0_50_3)">
<path d="M436.661 238.986C437.074 237.646 437.105 236.218 436.752 234.862C436.399 233.505 435.675 232.272 434.661 231.301C433.647 230.329 432.382 229.656 431.007 229.356C429.632 229.057 428.201 229.143 426.872 229.605C425.543 230.066 424.368 230.886 423.479 231.972C422.589 233.058 422.02 234.368 421.833 235.757C421.646 237.146 421.85 238.56 422.421 239.841C422.992 241.121 423.909 242.219 425.069 243.013L420.422 254.612L443.256 252.686C443.256 252.686 431.684 246.503 431.539 244.033C432.745 243.679 433.844 243.032 434.738 242.152C435.632 241.271 436.293 240.183 436.661 238.986Z" fill="#ED9DA0"/>
<path d="M443.287 251.955L445.234 251.059C445.935 251.192 446.582 251.526 447.095 252.021C447.608 252.515 447.965 253.147 448.122 253.84C448.785 256.34 451.815 269.728 451.815 269.728C452.33 270.273 452.675 270.955 452.809 271.691C452.944 272.427 452.862 273.186 452.573 273.877C452.573 273.877 452.927 276.541 451.815 276.941C450.703 277.342 443.253 283.068 443.253 283.068L443.287 251.955Z" fill="#090814"/>
<path d="M437.421 248.466L432.388 245.414C431.227 251.166 425.238 251.482 424.077 245.731L420.375 248.467L412.562 251.06L413.698 281.221L429.558 281.175V281.221H444.098L445.234 251.06L437.421 248.466Z" fill="#090814"/>
<path d="M414.511 251.955L412.563 251.059C411.862 251.192 411.216 251.526 410.702 252.021C410.189 252.515 409.832 253.147 409.675 253.84C409.012 256.34 410.244 270.789 410.244 270.789C409.729 271.335 409.384 272.016 409.249 272.752C409.115 273.488 409.197 274.248 409.486 274.938C409.486 274.938 409.131 277.602 410.244 278.003C411.356 278.403 414.511 278.581 414.511 278.581L414.511 251.955Z" fill="#090814"/>
<path d="M422.198 233.545L421.62 239.416C421.62 239.416 415.554 227.697 423.096 225.53C423.096 225.53 422.361 224.54 423.427 224.21C424.493 223.881 434.601 222.3 435.406 227.227C435.406 227.227 440.687 230.484 439.089 233.972L437.206 238.07L435.502 238.164C435.502 238.164 435.453 230.36 432.848 230.621C430.242 230.881 422.198 233.545 422.198 233.545Z" fill="#090814"/>
</g>
<path d="M262.246 192.982C279.458 192.982 293.412 179.226 293.412 162.258C293.412 145.29 279.458 131.535 262.246 131.535C245.034 131.535 231.08 145.29 231.08 162.258C231.08 179.226 245.034 192.982 262.246 192.982Z" fill="black"/>
<mask id="mask1_50_3" style="mask-type:luminance" maskUnits="userSpaceOnUse" x="231" y="131" width="63" height="62">
<path d="M262.246 192.982C279.458 192.982 293.412 179.226 293.412 162.258C293.412 145.29 279.458 131.535 262.246 131.535C245.034 131.535 231.08 145.29 231.08 162.258C231.08 179.226 245.034 192.982 262.246 192.982Z" fill="white"/>
</mask>
<g mask="url(#mask1_50_3)">
<path d="M258.257 165.625L257.949 170.634L267.344 171.108L264.434 164.508L258.257 165.625Z" fill="#ED9DA0"/>
<path d="M257.708 169.885C260.225 171.202 264.254 170.842 268.816 169.885L269.53 206.981C269.53 206.981 254.656 211.778 249.746 205.567L252.927 173.828L257.707 169.888L257.708 169.885Z" fill="#D6D6E3"/>
<path d="M265.952 167.956L272.725 171.95C273.972 172.685 274.937 173.813 275.469 175.155C276.001 176.497 276.069 177.978 275.662 179.363L270.428 197.162C270.428 197.162 278.951 211.742 276.182 213.028C269.958 215.916 260.67 215.215 260.67 215.215L262.746 180.307L265.955 167.956H265.952Z" fill="#3F3D58"/>
<path d="M258.002 169.753L250.344 172.715L248.535 194.713L243.469 212.433C252.048 215.551 251.245 214.099 251.245 214.099L252.665 183.523L257.998 169.759L258.002 169.753Z" fill="#3F3D58"/>
<path d="M246.817 212.056L246.843 211.933L254.671 175.884C254.762 175.487 254.774 175.077 254.706 174.675C254.638 174.274 254.492 173.89 254.275 173.545C254.058 173.2 253.775 172.901 253.442 172.665C253.109 172.429 252.732 172.26 252.334 172.169C251.935 172.078 251.523 172.066 251.12 172.134C250.717 172.201 250.331 172.347 249.984 172.563C249.638 172.779 249.338 173.061 249.1 173.393C248.863 173.724 248.694 174.099 248.603 174.496L240.003 209.692L246.815 212.058L246.817 212.056Z" fill="#3F3D58"/>
<path d="M262.333 166.955C266.542 166.955 269.955 163.558 269.955 159.367C269.955 155.176 266.542 151.778 262.333 151.778C258.124 151.778 254.711 155.176 254.711 159.367C254.711 163.558 258.124 166.955 262.333 166.955Z" fill="#ED9DA0"/>
<path d="M258.707 149.535C257.029 150.122 256.068 150.456 255.19 151.302C253.703 152.728 253.458 154.633 253.23 156.402C252.889 158.148 253.03 159.953 253.637 161.625C253.915 162.323 255.264 165.435 257.845 165.827C258.351 165.905 259.542 165.925 259.199 165.672C256.024 163.337 254.669 161.93 254.78 158.334C254.85 156.099 258.279 153.686 260.315 153.253C260.804 153.153 261.309 153.16 261.796 153.273C262.282 153.386 262.738 153.602 263.133 153.906C264.844 155.306 264.771 161.09 266.576 162.299C267.316 162.797 266.823 159.296 267.347 159.864C268.379 160.984 267.717 162.698 267.532 163.353C266.652 166.451 265.731 164.16 264.873 166.806C263.947 169.663 272.08 171.587 272.356 172.224C272.837 173.334 265.959 178.599 267.847 179.513C270.244 180.672 272.133 179.162 273.247 180.456C273.869 181.18 273.532 181.946 274.657 184.197C275.025 184.935 275.209 185.3 275.371 185.287C276.14 185.225 277.386 179.094 275.371 173.385C274.525 170.989 273.697 168.642 271.479 166.806C270.306 165.835 269.319 165.486 269.04 164.353C268.64 162.733 270.302 162.043 270.635 159.488C270.863 157.741 271.022 155.242 270.402 153.641C269.817 152.128 269.309 150.814 267.98 149.625C267.66 149.34 265.083 147.396 262.35 147.341C261.093 147.316 260.167 149.023 258.709 149.534L258.707 149.535Z" fill="#090814"/>
<path d="M270.504 172.176C271.669 172.012 272.853 172.295 273.816 172.967C274.779 173.64 275.449 174.651 275.692 175.798C277.444 184.093 280.59 201.771 275.65 202.066C271.397 202.246 267.138 201.857 262.989 200.909L264.539 192.034L269.578 191.519L266.615 177.717C266.482 177.097 266.479 176.456 266.605 175.835C266.731 175.213 266.984 174.624 267.349 174.105C267.714 173.585 268.182 173.145 268.725 172.813C269.267 172.482 269.873 172.265 270.503 172.176H270.504Z" fill="#3F3D58"/>
</g>
<path d="M91.3215 123.139C97.4342 123.139 103.41 124.944 108.492 128.325C113.575 131.706 117.536 136.512 119.875 142.135C122.215 147.758 122.827 153.945 121.634 159.915C120.442 165.884 117.498 171.367 113.176 175.671C108.853 179.974 103.346 182.905 97.3511 184.093C91.3558 185.28 85.1415 184.671 79.494 182.341C73.8466 180.012 69.0196 176.068 65.6236 171.008C62.2275 165.947 60.4149 159.998 60.4149 153.911C60.4149 145.75 63.6711 137.923 69.4672 132.152C75.2633 126.381 83.1245 123.139 91.3215 123.139Z" fill="black"/>
<mask id="mask2_50_3" style="mask-type:luminance" maskUnits="userSpaceOnUse" x="60" y="123" width="63" height="62">
<path d="M91.2604 184.562C108.296 184.562 122.106 170.812 122.106 153.851C122.106 136.889 108.296 123.139 91.2604 123.139C74.2249 123.139 60.4149 136.889 60.4149 153.851C60.4149 170.812 74.2249 184.562 91.2604 184.562Z" fill="white"/>
</mask>
<g mask="url(#mask2_50_3)">
<path d="M93.1427 147.987C96.0923 147.987 98.4834 145.606 98.4834 142.67C98.4834 139.733 96.0923 137.352 93.1427 137.352C90.193 137.352 87.8019 139.733 87.8019 142.67C87.8019 145.606 90.193 147.987 93.1427 147.987Z" fill="#FFB9B9"/>
<path d="M88.5301 143.878C88.5301 143.878 88.287 151.372 87.0737 152.338C85.8604 153.305 91.4437 157.414 91.4437 157.414L95.0848 151.613V146.296L88.5301 143.878Z" fill="#FFB9B9"/>
<path d="M90.958 154.031L88.0105 149.6L86.3442 151.855L83.9164 158.624L85.8585 184.971L97.2689 185.213L98.7254 154.998L95.0842 150.647L90.958 154.031Z" fill="#F2F2F2"/>
<path d="M103.339 155.723L105.281 155.481C105.281 155.481 105.766 155.723 106.01 157.415C106.253 159.107 109.164 174.094 109.164 174.094L105.28 192.467L100.91 186.666L103.582 176.514L100.911 166.358L103.339 155.723Z" fill="#090814"/>
<path d="M78.5762 155.481H77.1197L73.4786 175.061L76.8772 190.29L80.2764 184.73L79.305 178.687L79.7895 173.369L81.4891 170.227L78.5762 155.481Z" fill="#090814"/>
<path d="M89.9872 142.672L90.9586 142.429C90.9586 142.429 91.6868 138.319 93.3864 138.804C95.086 139.289 99.4561 139.771 99.4561 137.837C99.4561 135.903 95.328 134.212 92.9014 134.452C90.4748 134.693 86.3461 135.421 86.5886 139.046C86.8232 141.508 87.4333 143.92 88.3981 146.199L88.5258 144.049L89.9872 142.672Z" fill="#090814"/>
<path d="M105.039 155.481L97.2707 152.339L95.4501 151.009L89.9878 175.061L86.3466 164.185L87.439 150.286L77.3641 155.483L80.7646 171.921L81.2503 178.206L79.7938 183.282C79.7938 183.282 74.6956 186.908 76.3952 190.776C78.0948 194.644 80.0363 194.886 80.0363 194.886C80.0363 194.886 88.2906 187.151 88.7769 185.217C89.2633 183.284 89.9909 179.9 89.9909 179.9C89.9909 179.9 94.119 195.37 98.9734 195.128C103.828 194.886 103.829 189.81 103.829 189.81L102.615 184.493L100.671 178.926L101.642 169.741L105.039 155.481Z" fill="#090814"/>
</g>
</g>
<defs>
<clipPath id="clip0_50_3">
<rect width="494" height="321" fill="white"/>
</clipPath>
</defs>
</svg>
